<?xml version="1.0" encoding="utf-8" standalone="no"?>
<!DOCTYPE svg PUBLIC "-//W3C//DTD SVG 1.1//EN"
  "http://www.w3.org/Graphics/SVG/1.1/DTD/svg11.dtd">
<!-- Created with matplotlib (https://matplotlib.org/) -->
<svg height="1008pt" version="1.1" viewBox="0 0 1152 1008" width="1152pt" xmlns="http://www.w3.org/2000/svg" xmlns:xlink="http://www.w3.org/1999/xlink">
 <metadata>
  <rdf:RDF xmlns:cc="http://creativecommons.org/ns#" xmlns:dc="http://purl.org/dc/elements/1.1/" xmlns:rdf="http://www.w3.org/1999/02/22-rdf-syntax-ns#">
   <cc:Work>
    <dc:type rdf:resource="http://purl.org/dc/dcmitype/StillImage"/>
    <dc:date>2021-02-23T16:58:26.331091</dc:date>
    <dc:format>image/svg+xml</dc:format>
    <dc:creator>
     <cc:Agent>
      <dc:title>Matplotlib v3.3.3, https://matplotlib.org/</dc:title>
     </cc:Agent>
    </dc:creator>
   </cc:Work>
  </rdf:RDF>
 </metadata>
 <defs>
  <style type="text/css">*{stroke-linecap:butt;stroke-linejoin:round;}</style>
 </defs>
 <g id="figure_1">
  <g id="patch_1">
   <path d="M 0 1008 
L 1152 1008 
L 1152 0 
L 0 0 
z
" style="fill:none;"/>
  </g>
  <g id="axes_1">
   <g id="patch_2">
    <path d="M 144 882 
L 1036.8 882 
L 1036.8 120.96 
L 144 120.96 
z
" style="fill:#ffffff;"/>
   </g>
   <g id="PathCollection_1">
    <defs>
     <path d="M 0 3 
C 0.795609 3 1.55874 2.683901 2.12132 2.12132 
C 2.683901 1.55874 3 0.795609 3 0 
C 3 -0.795609 2.683901 -1.55874 2.12132 -2.12132 
C 1.55874 -2.683901 0.795609 -3 0 -3 
C -0.795609 -3 -1.55874 -2.683901 -2.12132 -2.12132 
C -2.683901 -1.55874 -3 -0.795609 -3 0 
C -3 0.795609 -2.683901 1.55874 -2.12132 2.12132 
C -1.55874 2.683901 -0.795609 3 0 3 
z
" id="m1f78c9186d" style="stroke:#1f77b4;"/>
    </defs>
    <g clip-path="url(#pebe017ada0)">
     <use style="fill:#1f77b4;stroke:#1f77b4;" x="235.241265" xlink:href="#m1f78c9186d" y="644.222708"/>
     <use style="fill:#1f77b4;stroke:#1f77b4;" x="200.607488" xlink:href="#m1f78c9186d" y="718.196324"/>
     <use style="fill:#1f77b4;stroke:#1f77b4;" x="189.824215" xlink:href="#m1f78c9186d" y="750.811332"/>
     <use style="fill:#1f77b4;stroke:#1f77b4;" x="211.802906" xlink:href="#m1f78c9186d" y="749.423459"/>
     <use style="fill:#1f77b4;stroke:#1f77b4;" x="242.263819" xlink:href="#m1f78c9186d" y="762.191888"/>
     <use style="fill:#1f77b4;stroke:#1f77b4;" x="188.6073" xlink:href="#m1f78c9186d" y="760.804016"/>
     <use style="fill:#1f77b4;stroke:#1f77b4;" x="198.254946" xlink:href="#m1f78c9186d" y="743.733181"/>
     <use style="fill:#1f77b4;stroke:#1f77b4;" x="197.605791" xlink:href="#m1f78c9186d" y="713.061194"/>
     <use style="fill:#1f77b4;stroke:#1f77b4;" x="201.833565" xlink:href="#m1f78c9186d" y="742.900458"/>
     <use style="fill:#1f77b4;stroke:#1f77b4;" x="238.469691" xlink:href="#m1f78c9186d" y="847.407273"/>
     <use style="fill:#1f77b4;stroke:#1f77b4;" x="418.85439" xlink:href="#m1f78c9186d" y="789.116619"/>
     <use style="fill:#1f77b4;stroke:#1f77b4;" x="186.419907" xlink:href="#m1f78c9186d" y="717.918749"/>
     <use style="fill:#1f77b4;stroke:#1f77b4;" x="193.98639" xlink:href="#m1f78c9186d" y="735.961094"/>
     <use style="fill:#1f77b4;stroke:#1f77b4;" x="199.66796" xlink:href="#m1f78c9186d" y="725.968411"/>
     <use style="fill:#1f77b4;stroke:#1f77b4;" x="197.893349" xlink:href="#m1f78c9186d" y="732.352625"/>
     <use style="fill:#1f77b4;stroke:#1f77b4;" x="194.920799" xlink:href="#m1f78c9186d" y="774.682743"/>
     <use style="fill:#1f77b4;stroke:#1f77b4;" x="288.771465" xlink:href="#m1f78c9186d" y="731.519902"/>
     <use style="fill:#1f77b4;stroke:#1f77b4;" x="305.70211" xlink:href="#m1f78c9186d" y="728.605369"/>
     <use style="fill:#1f77b4;stroke:#1f77b4;" x="215.627399" xlink:href="#m1f78c9186d" y="753.031929"/>
     <use style="fill:#1f77b4;stroke:#1f77b4;" x="210.759728" xlink:href="#m1f78c9186d" y="747.34165"/>
     <use style="fill:#1f77b4;stroke:#1f77b4;" x="224.788369" xlink:href="#m1f78c9186d" y="745.953778"/>
     <use style="fill:#1f77b4;stroke:#1f77b4;" x="195.009646" xlink:href="#m1f78c9186d" y="738.320478"/>
     <use style="fill:#1f77b4;stroke:#1f77b4;" x="190.741318" xlink:href="#m1f78c9186d" y="701.819426"/>
     <use style="fill:#1f77b4;stroke:#1f77b4;" x="188.723505" xlink:href="#m1f78c9186d" y="742.484096"/>
     <use style="fill:#1f77b4;stroke:#1f77b4;" x="233.288307" xlink:href="#m1f78c9186d" y="669.343204"/>
     <use style="fill:#1f77b4;stroke:#1f77b4;" x="304.77753" xlink:href="#m1f78c9186d" y="686.8304"/>
     <use style="fill:#1f77b4;stroke:#1f77b4;" x="194.964978" xlink:href="#m1f78c9186d" y="702.929724"/>
     <use style="fill:#1f77b4;stroke:#1f77b4;" x="225.907018" xlink:href="#m1f78c9186d" y="784.814214"/>
     <use style="fill:#1f77b4;stroke:#1f77b4;" x="278.348081" xlink:href="#m1f78c9186d" y="793.696599"/>
     <use style="fill:#1f77b4;stroke:#1f77b4;" x="227.226005" xlink:href="#m1f78c9186d" y="724.858113"/>
     <use style="fill:#1f77b4;stroke:#1f77b4;" x="199.549723" xlink:href="#m1f78c9186d" y="699.182467"/>
     <use style="fill:#1f77b4;stroke:#1f77b4;" x="189.895657" xlink:href="#m1f78c9186d" y="753.170716"/>
     <use style="fill:#1f77b4;stroke:#1f77b4;" x="220.576178" xlink:href="#m1f78c9186d" y="729.715667"/>
     <use style="fill:#1f77b4;stroke:#1f77b4;" x="216.893564" xlink:href="#m1f78c9186d" y="718.612685"/>
     <use style="fill:#1f77b4;stroke:#1f77b4;" x="206.641781" xlink:href="#m1f78c9186d" y="655.464477"/>
     <use style="fill:#1f77b4;stroke:#1f77b4;" x="277.005079" xlink:href="#m1f78c9186d" y="765.800357"/>
     <use style="fill:#1f77b4;stroke:#1f77b4;" x="275.888616" xlink:href="#m1f78c9186d" y="754.419801"/>
     <use style="fill:#1f77b4;stroke:#1f77b4;" x="194.294763" xlink:href="#m1f78c9186d" y="792.031152"/>
     <use style="fill:#1f77b4;stroke:#1f77b4;" x="189.17579" xlink:href="#m1f78c9186d" y="787.728746"/>
     <use style="fill:#1f77b4;stroke:#1f77b4;" x="209.428086" xlink:href="#m1f78c9186d" y="763.579761"/>
     <use style="fill:#1f77b4;stroke:#1f77b4;" x="225.238979" xlink:href="#m1f78c9186d" y="795.500833"/>
     <use style="fill:#1f77b4;stroke:#1f77b4;" x="249.216575" xlink:href="#m1f78c9186d" y="818.955882"/>
     <use style="fill:#1f77b4;stroke:#1f77b4;" x="186.727909" xlink:href="#m1f78c9186d" y="810.351071"/>
     <use style="fill:#1f77b4;stroke:#1f77b4;" x="244.229846" xlink:href="#m1f78c9186d" y="823.1195"/>
     <use style="fill:#1f77b4;stroke:#1f77b4;" x="267.639774" xlink:href="#m1f78c9186d" y="784.536639"/>
     <use style="fill:#1f77b4;stroke:#1f77b4;" x="294.232818" xlink:href="#m1f78c9186d" y="791.61479"/>
     <use style="fill:#1f77b4;stroke:#1f77b4;" x="301.542025" xlink:href="#m1f78c9186d" y="846.0194"/>
     <use style="fill:#1f77b4;stroke:#1f77b4;" x="238.328818" xlink:href="#m1f78c9186d" y="794.529323"/>
     <use style="fill:#1f77b4;stroke:#1f77b4;" x="291.389115" xlink:href="#m1f78c9186d" y="820.343755"/>
     <use style="fill:#1f77b4;stroke:#1f77b4;" x="237.727156" xlink:href="#m1f78c9186d" y="756.50161"/>
     <use style="fill:#1f77b4;stroke:#1f77b4;" x="246.683631" xlink:href="#m1f78c9186d" y="775.099105"/>
     <use style="fill:#1f77b4;stroke:#1f77b4;" x="188.385261" xlink:href="#m1f78c9186d" y="734.989583"/>
     <use style="fill:#1f77b4;stroke:#1f77b4;" x="193.642933" xlink:href="#m1f78c9186d" y="763.579761"/>
     <use style="fill:#1f77b4;stroke:#1f77b4;" x="252.291993" xlink:href="#m1f78c9186d" y="793.696599"/>
     <use style="fill:#1f77b4;stroke:#1f77b4;" x="235.801413" xlink:href="#m1f78c9186d" y="780.095446"/>
     <use style="fill:#1f77b4;stroke:#1f77b4;" x="188.784609" xlink:href="#m1f78c9186d" y="763.440974"/>
     <use style="fill:#1f77b4;stroke:#1f77b4;" x="192.856261" xlink:href="#m1f78c9186d" y="750.256183"/>
     <use style="fill:#1f77b4;stroke:#1f77b4;" x="206.870108" xlink:href="#m1f78c9186d" y="819.511031"/>
     <use style="fill:#1f77b4;stroke:#1f77b4;" x="258.408133" xlink:href="#m1f78c9186d" y="733.462923"/>
     <use style="fill:#1f77b4;stroke:#1f77b4;" x="208.633558" xlink:href="#m1f78c9186d" y="817.290435"/>
     <use style="fill:#1f77b4;stroke:#1f77b4;" x="196.40031" xlink:href="#m1f78c9186d" y="766.355507"/>
     <use style="fill:#1f77b4;stroke:#1f77b4;" x="186.402735" xlink:href="#m1f78c9186d" y="776.34819"/>
     <use style="fill:#1f77b4;stroke:#1f77b4;" x="259.005233" xlink:href="#m1f78c9186d" y="837.553376"/>
     <use style="fill:#1f77b4;stroke:#1f77b4;" x="232.982368" xlink:href="#m1f78c9186d" y="751.644056"/>
     <use style="fill:#1f77b4;stroke:#1f77b4;" x="231.60625" xlink:href="#m1f78c9186d" y="770.519125"/>
     <use style="fill:#1f77b4;stroke:#1f77b4;" x="204.125766" xlink:href="#m1f78c9186d" y="809.795922"/>
     <use style="fill:#1f77b4;stroke:#1f77b4;" x="219.983066" xlink:href="#m1f78c9186d" y="798.137792"/>
     <use style="fill:#1f77b4;stroke:#1f77b4;" x="201.860395" xlink:href="#m1f78c9186d" y="772.600934"/>
     <use style="fill:#1f77b4;stroke:#1f77b4;" x="201.84095" xlink:href="#m1f78c9186d" y="778.429999"/>
     <use style="fill:#1f77b4;stroke:#1f77b4;" x="309.947629" xlink:href="#m1f78c9186d" y="778.429999"/>
     <use style="fill:#1f77b4;stroke:#1f77b4;" x="348.679161" xlink:href="#m1f78c9186d" y="793.002663"/>
     <use style="fill:#1f77b4;stroke:#1f77b4;" x="321.4134" xlink:href="#m1f78c9186d" y="835.33278"/>
     <use style="fill:#1f77b4;stroke:#1f77b4;" x="274.180268" xlink:href="#m1f78c9186d" y="782.732404"/>
     <use style="fill:#1f77b4;stroke:#1f77b4;" x="288.881752" xlink:href="#m1f78c9186d" y="763.718548"/>
     <use style="fill:#1f77b4;stroke:#1f77b4;" x="199.276373" xlink:href="#m1f78c9186d" y="794.390535"/>
     <use style="fill:#1f77b4;stroke:#1f77b4;" x="185.951679" xlink:href="#m1f78c9186d" y="755.668887"/>
     <use style="fill:#1f77b4;stroke:#1f77b4;" x="185.305778" xlink:href="#m1f78c9186d" y="757.611908"/>
     <use style="fill:#1f77b4;stroke:#1f77b4;" x="205.410398" xlink:href="#m1f78c9186d" y="728.189007"/>
     <use style="fill:#1f77b4;stroke:#1f77b4;" x="300.072343" xlink:href="#m1f78c9186d" y="775.237892"/>
     <use style="fill:#1f77b4;stroke:#1f77b4;" x="302.370517" xlink:href="#m1f78c9186d" y="778.152425"/>
     <use style="fill:#1f77b4;stroke:#1f77b4;" x="300.334467" xlink:href="#m1f78c9186d" y="809.657135"/>
     <use style="fill:#1f77b4;stroke:#1f77b4;" x="202.068457" xlink:href="#m1f78c9186d" y="806.742602"/>
     <use style="fill:#1f77b4;stroke:#1f77b4;" x="189.401002" xlink:href="#m1f78c9186d" y="747.896799"/>
     <use style="fill:#1f77b4;stroke:#1f77b4;" x="184.581818" xlink:href="#m1f78c9186d" y="778.568786"/>
     <use style="fill:#1f77b4;stroke:#1f77b4;" x="192.614282" xlink:href="#m1f78c9186d" y="736.655031"/>
     <use style="fill:#1f77b4;stroke:#1f77b4;" x="186.674967" xlink:href="#m1f78c9186d" y="800.497175"/>
     <use style="fill:#1f77b4;stroke:#1f77b4;" x="185.834468" xlink:href="#m1f78c9186d" y="786.202086"/>
     <use style="fill:#1f77b4;stroke:#1f77b4;" x="187.300362" xlink:href="#m1f78c9186d" y="724.302963"/>
     <use style="fill:#1f77b4;stroke:#1f77b4;" x="220.093387" xlink:href="#m1f78c9186d" y="763.579761"/>
     <use style="fill:#1f77b4;stroke:#1f77b4;" x="236.853311" xlink:href="#m1f78c9186d" y="830.891587"/>
     <use style="fill:#1f77b4;stroke:#1f77b4;" x="189.780208" xlink:href="#m1f78c9186d" y="769.547614"/>
     <use style="fill:#1f77b4;stroke:#1f77b4;" x="275.563234" xlink:href="#m1f78c9186d" y="804.660793"/>
     <use style="fill:#1f77b4;stroke:#1f77b4;" x="242.10251" xlink:href="#m1f78c9186d" y="783.703915"/>
     <use style="fill:#1f77b4;stroke:#1f77b4;" x="214.442147" xlink:href="#m1f78c9186d" y="804.660793"/>
     <use style="fill:#1f77b4;stroke:#1f77b4;" x="337.161252" xlink:href="#m1f78c9186d" y="770.24155"/>
     <use style="fill:#1f77b4;stroke:#1f77b4;" x="206.908492" xlink:href="#m1f78c9186d" y="763.857336"/>
     <use style="fill:#1f77b4;stroke:#1f77b4;" x="204.259276" xlink:href="#m1f78c9186d" y="700.709127"/>
     <use style="fill:#1f77b4;stroke:#1f77b4;" x="266.731076" xlink:href="#m1f78c9186d" y="798.554153"/>
     <use style="fill:#1f77b4;stroke:#1f77b4;" x="320.256822" xlink:href="#m1f78c9186d" y="692.93704"/>
     <use style="fill:#1f77b4;stroke:#1f77b4;" x="310.271503" xlink:href="#m1f78c9186d" y="705.011533"/>
     <use style="fill:#1f77b4;stroke:#1f77b4;" x="212.314839" xlink:href="#m1f78c9186d" y="761.08159"/>
     <use style="fill:#1f77b4;stroke:#1f77b4;" x="188.018756" xlink:href="#m1f78c9186d" y="743.178032"/>
     <use style="fill:#1f77b4;stroke:#1f77b4;" x="240.584685" xlink:href="#m1f78c9186d" y="769.131252"/>
     <use style="fill:#1f77b4;stroke:#1f77b4;" x="203.19506" xlink:href="#m1f78c9186d" y="695.573998"/>
     <use style="fill:#1f77b4;stroke:#1f77b4;" x="192.705245" xlink:href="#m1f78c9186d" y="761.220377"/>
    </g>
   </g>
   <g id="PathCollection_2">
    <defs>
     <path d="M 0 3 
C 0.795609 3 1.55874 2.683901 2.12132 2.12132 
C 2.683901 1.55874 3 0.795609 3 0 
C 3 -0.795609 2.683901 -1.55874 2.12132 -2.12132 
C 1.55874 -2.683901 0.795609 -3 0 -3 
C -0.795609 -3 -1.55874 -2.683901 -2.12132 -2.12132 
C -2.683901 -1.55874 -3 -0.795609 -3 0 
C -3 0.795609 -2.683901 1.55874 -2.12132 2.12132 
C -1.55874 2.683901 -0.795609 3 0 3 
z
" id="mec7a39464b" style="stroke:#ff7f0e;"/>
    </defs>
    <g clip-path="url(#pebe017ada0)">
     <use style="fill:#ff7f0e;stroke:#ff7f0e;" x="630.558993" xlink:href="#mec7a39464b" y="155.552727"/>
     <use style="fill:#ff7f0e;stroke:#ff7f0e;" x="630.449363" xlink:href="#mec7a39464b" y="226.61181"/>
     <use style="fill:#ff7f0e;stroke:#ff7f0e;" x="570.899896" xlink:href="#mec7a39464b" y="232.302088"/>
     <use style="fill:#ff7f0e;stroke:#ff7f0e;" x="541.315001" xlink:href="#mec7a39464b" y="343.05433"/>
     <use style="fill:#ff7f0e;stroke:#ff7f0e;" x="575.101056" xlink:href="#mec7a39464b" y="286.290336"/>
     <use style="fill:#ff7f0e;stroke:#ff7f0e;" x="430.20305" xlink:href="#mec7a39464b" y="343.331905"/>
     <use style="fill:#ff7f0e;stroke:#ff7f0e;" x="379.062405" xlink:href="#mec7a39464b" y="212.594296"/>
     <use style="fill:#ff7f0e;stroke:#ff7f0e;" x="424.630774" xlink:href="#mec7a39464b" y="344.997352"/>
     <use style="fill:#ff7f0e;stroke:#ff7f0e;" x="443.690606" xlink:href="#mec7a39464b" y="324.040474"/>
     <use style="fill:#ff7f0e;stroke:#ff7f0e;" x="610.67788" xlink:href="#mec7a39464b" y="249.928071"/>
     <use style="fill:#ff7f0e;stroke:#ff7f0e;" x="620.317884" xlink:href="#mec7a39464b" y="203.017974"/>
     <use style="fill:#ff7f0e;stroke:#ff7f0e;" x="372.241523" xlink:href="#mec7a39464b" y="365.121506"/>
     <use style="fill:#ff7f0e;stroke:#ff7f0e;" x="496.968177" xlink:href="#mec7a39464b" y="173.039923"/>
     <use style="fill:#ff7f0e;stroke:#ff7f0e;" x="598.664907" xlink:href="#mec7a39464b" y="254.785626"/>
     <use style="fill:#ff7f0e;stroke:#ff7f0e;" x="558.153233" xlink:href="#mec7a39464b" y="285.180038"/>
     <use style="fill:#ff7f0e;stroke:#ff7f0e;" x="491.17166" xlink:href="#mec7a39464b" y="186.085927"/>
     <use style="fill:#ff7f0e;stroke:#ff7f0e;" x="434.035352" xlink:href="#mec7a39464b" y="239.380239"/>
     <use style="fill:#ff7f0e;stroke:#ff7f0e;" x="722.97194" xlink:href="#mec7a39464b" y="165.961773"/>
     <use style="fill:#ff7f0e;stroke:#ff7f0e;" x="414.223937" xlink:href="#mec7a39464b" y="435.209078"/>
     <use style="fill:#ff7f0e;stroke:#ff7f0e;" x="387.140246" xlink:href="#mec7a39464b" y="424.522458"/>
     <use style="fill:#ff7f0e;stroke:#ff7f0e;" x="691.803786" xlink:href="#mec7a39464b" y="173.317498"/>
     <use style="fill:#ff7f0e;stroke:#ff7f0e;" x="403.400294" xlink:href="#mec7a39464b" y="407.867986"/>
     <use style="fill:#ff7f0e;stroke:#ff7f0e;" x="385.214507" xlink:href="#mec7a39464b" y="207.042805"/>
     <use style="fill:#ff7f0e;stroke:#ff7f0e;" x="525.340521" xlink:href="#mec7a39464b" y="243.543857"/>
     <use style="fill:#ff7f0e;stroke:#ff7f0e;" x="668.466631" xlink:href="#mec7a39464b" y="188.028949"/>
     <use style="fill:#ff7f0e;stroke:#ff7f0e;" x="370.055671" xlink:href="#mec7a39464b" y="402.871644"/>
     <use style="fill:#ff7f0e;stroke:#ff7f0e;" x="403.888147" xlink:href="#mec7a39464b" y="305.165405"/>
     <use style="fill:#ff7f0e;stroke:#ff7f0e;" x="376.457814" xlink:href="#mec7a39464b" y="508.488757"/>
     <use style="fill:#ff7f0e;stroke:#ff7f0e;" x="419.857162" xlink:href="#mec7a39464b" y="210.096125"/>
     <use style="fill:#ff7f0e;stroke:#ff7f0e;" x="334.598639" xlink:href="#mec7a39464b" y="468.934385"/>
     <use style="fill:#ff7f0e;stroke:#ff7f0e;" x="588.337389" xlink:href="#mec7a39464b" y="286.151549"/>
     <use style="fill:#ff7f0e;stroke:#ff7f0e;" x="724.669093" xlink:href="#mec7a39464b" y="227.722108"/>
     <use style="fill:#ff7f0e;stroke:#ff7f0e;" x="899.089552" xlink:href="#mec7a39464b" y="229.109981"/>
     <use style="fill:#ff7f0e;stroke:#ff7f0e;" x="359.01591" xlink:href="#mec7a39464b" y="248.401412"/>
     <use style="fill:#ff7f0e;stroke:#ff7f0e;" x="393.445141" xlink:href="#mec7a39464b" y="329.175603"/>
     <use style="fill:#ff7f0e;stroke:#ff7f0e;" x="687.470752" xlink:href="#mec7a39464b" y="309.745385"/>
     <use style="fill:#ff7f0e;stroke:#ff7f0e;" x="627.558973" xlink:href="#mec7a39464b" y="290.870316"/>
     <use style="fill:#ff7f0e;stroke:#ff7f0e;" x="901.400214" xlink:href="#mec7a39464b" y="170.125391"/>
     <use style="fill:#ff7f0e;stroke:#ff7f0e;" x="657.35149" xlink:href="#mec7a39464b" y="214.814892"/>
     <use style="fill:#ff7f0e;stroke:#ff7f0e;" x="589.414319" xlink:href="#mec7a39464b" y="308.357513"/>
     <use style="fill:#ff7f0e;stroke:#ff7f0e;" x="318.560698" xlink:href="#mec7a39464b" y="343.331905"/>
     <use style="fill:#ff7f0e;stroke:#ff7f0e;" x="352.699161" xlink:href="#mec7a39464b" y="269.913438"/>
     <use style="fill:#ff7f0e;stroke:#ff7f0e;" x="460.808402" xlink:href="#mec7a39464b" y="311.965982"/>
     <use style="fill:#ff7f0e;stroke:#ff7f0e;" x="462.929988" xlink:href="#mec7a39464b" y="372.754806"/>
     <use style="fill:#ff7f0e;stroke:#ff7f0e;" x="630.872514" xlink:href="#mec7a39464b" y="209.402188"/>
     <use style="fill:#ff7f0e;stroke:#ff7f0e;" x="255.148041" xlink:href="#mec7a39464b" y="510.015417"/>
     <use style="fill:#ff7f0e;stroke:#ff7f0e;" x="498.12831" xlink:href="#mec7a39464b" y="721.666005"/>
     <use style="fill:#ff7f0e;stroke:#ff7f0e;" x="358.662902" xlink:href="#mec7a39464b" y="380.249319"/>
     <use style="fill:#ff7f0e;stroke:#ff7f0e;" x="490.078757" xlink:href="#mec7a39464b" y="493.499732"/>
     <use style="fill:#ff7f0e;stroke:#ff7f0e;" x="600.317531" xlink:href="#mec7a39464b" y="227.028172"/>
     <use style="fill:#ff7f0e;stroke:#ff7f0e;" x="287.97004" xlink:href="#mec7a39464b" y="380.943255"/>
     <use style="fill:#ff7f0e;stroke:#ff7f0e;" x="598.456844" xlink:href="#mec7a39464b" y="246.042028"/>
     <use style="fill:#ff7f0e;stroke:#ff7f0e;" x="470.286222" xlink:href="#mec7a39464b" y="253.258966"/>
     <use style="fill:#ff7f0e;stroke:#ff7f0e;" x="551.009469" xlink:href="#mec7a39464b" y="323.068963"/>
     <use style="fill:#ff7f0e;stroke:#ff7f0e;" x="655.142525" xlink:href="#mec7a39464b" y="161.798154"/>
     <use style="fill:#ff7f0e;stroke:#ff7f0e;" x="448.3749" xlink:href="#mec7a39464b" y="291.147891"/>
     <use style="fill:#ff7f0e;stroke:#ff7f0e;" x="416.142599" xlink:href="#mec7a39464b" y="372.477232"/>
     <use style="fill:#ff7f0e;stroke:#ff7f0e;" x="237.287552" xlink:href="#mec7a39464b" y="603.9744"/>
     <use style="fill:#ff7f0e;stroke:#ff7f0e;" x="366.527688" xlink:href="#mec7a39464b" y="323.068963"/>
     <use style="fill:#ff7f0e;stroke:#ff7f0e;" x="636.486352" xlink:href="#mec7a39464b" y="163.186027"/>
     <use style="fill:#ff7f0e;stroke:#ff7f0e;" x="420.374338" xlink:href="#mec7a39464b" y="205.654932"/>
     <use style="fill:#ff7f0e;stroke:#ff7f0e;" x="750.33415" xlink:href="#mec7a39464b" y="208.569465"/>
     <use style="fill:#ff7f0e;stroke:#ff7f0e;" x="700.32305" xlink:href="#mec7a39464b" y="205.654932"/>
     <use style="fill:#ff7f0e;stroke:#ff7f0e;" x="468.191085" xlink:href="#mec7a39464b" y="174.011434"/>
     <use style="fill:#ff7f0e;stroke:#ff7f0e;" x="746.839076" xlink:href="#mec7a39464b" y="184.559267"/>
     <use style="fill:#ff7f0e;stroke:#ff7f0e;" x="876.49991" xlink:href="#mec7a39464b" y="157.773324"/>
     <use style="fill:#ff7f0e;stroke:#ff7f0e;" x="652.534708" xlink:href="#mec7a39464b" y="284.486102"/>
     <use style="fill:#ff7f0e;stroke:#ff7f0e;" x="676.391492" xlink:href="#mec7a39464b" y="244.237793"/>
     <use style="fill:#ff7f0e;stroke:#ff7f0e;" x="312.705351" xlink:href="#mec7a39464b" y="397.736515"/>
     <use style="fill:#ff7f0e;stroke:#ff7f0e;" x="552.802978" xlink:href="#mec7a39464b" y="177.203542"/>
     <use style="fill:#ff7f0e;stroke:#ff7f0e;" x="610.532936" xlink:href="#mec7a39464b" y="230.914215"/>
     <use style="fill:#ff7f0e;stroke:#ff7f0e;" x="826.651436" xlink:href="#mec7a39464b" y="201.074952"/>
     <use style="fill:#ff7f0e;stroke:#ff7f0e;" x="878.019642" xlink:href="#mec7a39464b" y="325.011985"/>
     <use style="fill:#ff7f0e;stroke:#ff7f0e;" x="941.202951" xlink:href="#mec7a39464b" y="213.010657"/>
     <use style="fill:#ff7f0e;stroke:#ff7f0e;" x="996.218182" xlink:href="#mec7a39464b" y="177.203542"/>
     <use style="fill:#ff7f0e;stroke:#ff7f0e;" x="604.327509" xlink:href="#mec7a39464b" y="247.291113"/>
     <use style="fill:#ff7f0e;stroke:#ff7f0e;" x="815.995088" xlink:href="#mec7a39464b" y="217.035488"/>
     <use style="fill:#ff7f0e;stroke:#ff7f0e;" x="816.808303" xlink:href="#mec7a39464b" y="181.644734"/>
     <use style="fill:#ff7f0e;stroke:#ff7f0e;" x="371.253349" xlink:href="#mec7a39464b" y="304.055107"/>
     <use style="fill:#ff7f0e;stroke:#ff7f0e;" x="366.021677" xlink:href="#mec7a39464b" y="329.453178"/>
     <use style="fill:#ff7f0e;stroke:#ff7f0e;" x="451.091228" xlink:href="#mec7a39464b" y="333.89437"/>
     <use style="fill:#ff7f0e;stroke:#ff7f0e;" x="735.92703" xlink:href="#mec7a39464b" y="223.419703"/>
     <use style="fill:#ff7f0e;stroke:#ff7f0e;" x="364.539466" xlink:href="#mec7a39464b" y="222.03183"/>
     <use style="fill:#ff7f0e;stroke:#ff7f0e;" x="549.179827" xlink:href="#mec7a39464b" y="175.676882"/>
     <use style="fill:#ff7f0e;stroke:#ff7f0e;" x="576.205785" xlink:href="#mec7a39464b" y="248.817773"/>
     <use style="fill:#ff7f0e;stroke:#ff7f0e;" x="514.739565" xlink:href="#mec7a39464b" y="244.654155"/>
     <use style="fill:#ff7f0e;stroke:#ff7f0e;" x="592.51639" xlink:href="#mec7a39464b" y="287.955784"/>
     <use style="fill:#ff7f0e;stroke:#ff7f0e;" x="609.518975" xlink:href="#mec7a39464b" y="202.740399"/>
     <use style="fill:#ff7f0e;stroke:#ff7f0e;" x="252.757822" xlink:href="#mec7a39464b" y="513.485099"/>
     <use style="fill:#ff7f0e;stroke:#ff7f0e;" x="397.214359" xlink:href="#mec7a39464b" y="649.635412"/>
     <use style="fill:#ff7f0e;stroke:#ff7f0e;" x="582.600828" xlink:href="#mec7a39464b" y="248.123837"/>
     <use style="fill:#ff7f0e;stroke:#ff7f0e;" x="464.183262" xlink:href="#mec7a39464b" y="177.481116"/>
     <use style="fill:#ff7f0e;stroke:#ff7f0e;" x="576.151056" xlink:href="#mec7a39464b" y="203.017974"/>
     <use style="fill:#ff7f0e;stroke:#ff7f0e;" x="432.67015" xlink:href="#mec7a39464b" y="260.19833"/>
     <use style="fill:#ff7f0e;stroke:#ff7f0e;" x="345.973665" xlink:href="#mec7a39464b" y="468.379236"/>
     <use style="fill:#ff7f0e;stroke:#ff7f0e;" x="538.253441" xlink:href="#mec7a39464b" y="425.632756"/>
     <use style="fill:#ff7f0e;stroke:#ff7f0e;" x="534.029217" xlink:href="#mec7a39464b" y="173.039923"/>
     <use style="fill:#ff7f0e;stroke:#ff7f0e;" x="479.877177" xlink:href="#mec7a39464b" y="212.039147"/>
     <use style="fill:#ff7f0e;stroke:#ff7f0e;" x="320.591169" xlink:href="#mec7a39464b" y="377.473573"/>
     <use style="fill:#ff7f0e;stroke:#ff7f0e;" x="417.383169" xlink:href="#mec7a39464b" y="263.251649"/>
     <use style="fill:#ff7f0e;stroke:#ff7f0e;" x="357.677606" xlink:href="#mec7a39464b" y="335.42103"/>
     <use style="fill:#ff7f0e;stroke:#ff7f0e;" x="503.426228" xlink:href="#mec7a39464b" y="336.808903"/>
     <use style="fill:#ff7f0e;stroke:#ff7f0e;" x="709.392693" xlink:href="#mec7a39464b" y="228.554832"/>
     <use style="fill:#ff7f0e;stroke:#ff7f0e;" x="868.8383" xlink:href="#mec7a39464b" y="222.586979"/>
     <use style="fill:#ff7f0e;stroke:#ff7f0e;" x="863.689328" xlink:href="#mec7a39464b" y="182.061096"/>
     <use style="fill:#ff7f0e;stroke:#ff7f0e;" x="568.454855" xlink:href="#mec7a39464b" y="311.272045"/>
     <use style="fill:#ff7f0e;stroke:#ff7f0e;" x="792.136031" xlink:href="#mec7a39464b" y="254.230477"/>
     <use style="fill:#ff7f0e;stroke:#ff7f0e;" x="743.07638" xlink:href="#mec7a39464b" y="186.502289"/>
     <use style="fill:#ff7f0e;stroke:#ff7f0e;" x="445.397092" xlink:href="#mec7a39464b" y="470.738619"/>
     <use style="fill:#ff7f0e;stroke:#ff7f0e;" x="484.444455" xlink:href="#mec7a39464b" y="197.050121"/>
    </g>
   </g>
   <g id="matplotlib.axis_1">
    <g id="xtick_1">
     <g id="line2d_1">
      <defs>
       <path d="M 0 0 
L 0 3.5 
" id="m020a1ecbb2" style="stroke:#000000;stroke-width:0.8;"/>
      </defs>
      <g>
       <use style="stroke:#000000;stroke-width:0.8;" x="181.807969" xlink:href="#m020a1ecbb2" y="882"/>
      </g>
     </g>
     <g id="text_1">
      <!-- 0.0 -->
      <g transform="translate(173.856407 896.598438)scale(0.1 -0.1)">
       <defs>
        <path d="M 31.78125 66.40625 
Q 24.171875 66.40625 20.328125 58.90625 
Q 16.5 51.421875 16.5 36.375 
Q 16.5 21.390625 20.328125 13.890625 
Q 24.171875 6.390625 31.78125 6.390625 
Q 39.453125 6.390625 43.28125 13.890625 
Q 47.125 21.390625 47.125 36.375 
Q 47.125 51.421875 43.28125 58.90625 
Q 39.453125 66.40625 31.78125 66.40625 
z
M 31.78125 74.21875 
Q 44.046875 74.21875 50.515625 64.515625 
Q 56.984375 54.828125 56.984375 36.375 
Q 56.984375 17.96875 50.515625 8.265625 
Q 44.046875 -1.421875 31.78125 -1.421875 
Q 19.53125 -1.421875 13.0625 8.265625 
Q 6.59375 17.96875 6.59375 36.375 
Q 6.59375 54.828125 13.0625 64.515625 
Q 19.53125 74.21875 31.78125 74.21875 
z
" id="DejaVuSans-48"/>
        <path d="M 10.6875 12.40625 
L 21 12.40625 
L 21 0 
L 10.6875 0 
z
" id="DejaVuSans-46"/>
       </defs>
       <use xlink:href="#DejaVuSans-48"/>
       <use x="63.623047" xlink:href="#DejaVuSans-46"/>
       <use x="95.410156" xlink:href="#DejaVuSans-48"/>
      </g>
     </g>
    </g>
    <g id="xtick_2">
     <g id="line2d_2">
      <g>
       <use style="stroke:#000000;stroke-width:0.8;" x="285.520553" xlink:href="#m020a1ecbb2" y="882"/>
      </g>
     </g>
     <g id="text_2">
      <!-- 2.5 -->
      <g transform="translate(277.56899 896.598438)scale(0.1 -0.1)">
       <defs>
        <path d="M 19.1875 8.296875 
L 53.609375 8.296875 
L 53.609375 0 
L 7.328125 0 
L 7.328125 8.296875 
Q 12.9375 14.109375 22.625 23.890625 
Q 32.328125 33.6875 34.8125 36.53125 
Q 39.546875 41.84375 41.421875 45.53125 
Q 43.3125 49.21875 43.3125 52.78125 
Q 43.3125 58.59375 39.234375 62.25 
Q 35.15625 65.921875 28.609375 65.921875 
Q 23.96875 65.921875 18.8125 64.3125 
Q 13.671875 62.703125 7.8125 59.421875 
L 7.8125 69.390625 
Q 13.765625 71.78125 18.9375 73 
Q 24.125 74.21875 28.421875 74.21875 
Q 39.75 74.21875 46.484375 68.546875 
Q 53.21875 62.890625 53.21875 53.421875 
Q 53.21875 48.921875 51.53125 44.890625 
Q 49.859375 40.875 45.40625 35.40625 
Q 44.1875 33.984375 37.640625 27.21875 
Q 31.109375 20.453125 19.1875 8.296875 
z
" id="DejaVuSans-50"/>
        <path d="M 10.796875 72.90625 
L 49.515625 72.90625 
L 49.515625 64.59375 
L 19.828125 64.59375 
L 19.828125 46.734375 
Q 21.96875 47.46875 24.109375 47.828125 
Q 26.265625 48.1875 28.421875 48.1875 
Q 40.625 48.1875 47.75 41.5 
Q 54.890625 34.8125 54.890625 23.390625 
Q 54.890625 11.625 47.5625 5.09375 
Q 40.234375 -1.421875 26.90625 -1.421875 
Q 22.3125 -1.421875 17.546875 -0.640625 
Q 12.796875 0.140625 7.71875 1.703125 
L 7.71875 11.625 
Q 12.109375 9.234375 16.796875 8.0625 
Q 21.484375 6.890625 26.703125 6.890625 
Q 35.15625 6.890625 40.078125 11.328125 
Q 45.015625 15.765625 45.015625 23.390625 
Q 45.015625 31 40.078125 35.4375 
Q 35.15625 39.890625 26.703125 39.890625 
Q 22.75 39.890625 18.8125 39.015625 
Q 14.890625 38.140625 10.796875 36.28125 
z
" id="DejaVuSans-53"/>
       </defs>
       <use xlink:href="#DejaVuSans-50"/>
       <use x="63.623047" xlink:href="#DejaVuSans-46"/>
       <use x="95.410156" xlink:href="#DejaVuSans-53"/>
      </g>
     </g>
    </g>
    <g id="xtick_3">
     <g id="line2d_3">
      <g>
       <use style="stroke:#000000;stroke-width:0.8;" x="389.233136" xlink:href="#m020a1ecbb2" y="882"/>
      </g>
     </g>
     <g id="text_3">
      <!-- 5.0 -->
      <g transform="translate(381.281574 896.598438)scale(0.1 -0.1)">
       <use xlink:href="#DejaVuSans-53"/>
       <use x="63.623047" xlink:href="#DejaVuSans-46"/>
       <use x="95.410156" xlink:href="#DejaVuSans-48"/>
      </g>
     </g>
    </g>
    <g id="xtick_4">
     <g id="line2d_4">
      <g>
       <use style="stroke:#000000;stroke-width:0.8;" x="492.94572" xlink:href="#m020a1ecbb2" y="882"/>
      </g>
     </g>
     <g id="text_4">
      <!-- 7.5 -->
      <g transform="translate(484.994157 896.598438)scale(0.1 -0.1)">
       <defs>
        <path d="M 8.203125 72.90625 
L 55.078125 72.90625 
L 55.078125 68.703125 
L 28.609375 0 
L 18.3125 0 
L 43.21875 64.59375 
L 8.203125 64.59375 
z
" id="DejaVuSans-55"/>
       </defs>
       <use xlink:href="#DejaVuSans-55"/>
       <use x="63.623047" xlink:href="#DejaVuSans-46"/>
       <use x="95.410156" xlink:href="#DejaVuSans-53"/>
      </g>
     </g>
    </g>
    <g id="xtick_5">
     <g id="line2d_5">
      <g>
       <use style="stroke:#000000;stroke-width:0.8;" x="596.658303" xlink:href="#m020a1ecbb2" y="882"/>
      </g>
     </g>
     <g id="text_5">
      <!-- 10.0 -->
      <g transform="translate(585.525491 896.598438)scale(0.1 -0.1)">
       <defs>
        <path d="M 12.40625 8.296875 
L 28.515625 8.296875 
L 28.515625 63.921875 
L 10.984375 60.40625 
L 10.984375 69.390625 
L 28.421875 72.90625 
L 38.28125 72.90625 
L 38.28125 8.296875 
L 54.390625 8.296875 
L 54.390625 0 
L 12.40625 0 
z
" id="DejaVuSans-49"/>
       </defs>
       <use xlink:href="#DejaVuSans-49"/>
       <use x="63.623047" xlink:href="#DejaVuSans-48"/>
       <use x="127.246094" xlink:href="#DejaVuSans-46"/>
       <use x="159.033203" xlink:href="#DejaVuSans-48"/>
      </g>
     </g>
    </g>
    <g id="xtick_6">
     <g id="line2d_6">
      <g>
       <use style="stroke:#000000;stroke-width:0.8;" x="700.370887" xlink:href="#m020a1ecbb2" y="882"/>
      </g>
     </g>
     <g id="text_6">
      <!-- 12.5 -->
      <g transform="translate(689.238074 896.598438)scale(0.1 -0.1)">
       <use xlink:href="#DejaVuSans-49"/>
       <use x="63.623047" xlink:href="#DejaVuSans-50"/>
       <use x="127.246094" xlink:href="#DejaVuSans-46"/>
       <use x="159.033203" xlink:href="#DejaVuSans-53"/>
      </g>
     </g>
    </g>
    <g id="xtick_7">
     <g id="line2d_7">
      <g>
       <use style="stroke:#000000;stroke-width:0.8;" x="804.08347" xlink:href="#m020a1ecbb2" y="882"/>
      </g>
     </g>
     <g id="text_7">
      <!-- 15.0 -->
      <g transform="translate(792.950658 896.598438)scale(0.1 -0.1)">
       <use xlink:href="#DejaVuSans-49"/>
       <use x="63.623047" xlink:href="#DejaVuSans-53"/>
       <use x="127.246094" xlink:href="#DejaVuSans-46"/>
       <use x="159.033203" xlink:href="#DejaVuSans-48"/>
      </g>
     </g>
    </g>
    <g id="xtick_8">
     <g id="line2d_8">
      <g>
       <use style="stroke:#000000;stroke-width:0.8;" x="907.796054" xlink:href="#m020a1ecbb2" y="882"/>
      </g>
     </g>
     <g id="text_8">
      <!-- 17.5 -->
      <g transform="translate(896.663241 896.598438)scale(0.1 -0.1)">
       <use xlink:href="#DejaVuSans-49"/>
       <use x="63.623047" xlink:href="#DejaVuSans-55"/>
       <use x="127.246094" xlink:href="#DejaVuSans-46"/>
       <use x="159.033203" xlink:href="#DejaVuSans-53"/>
      </g>
     </g>
    </g>
    <g id="xtick_9">
     <g id="line2d_9">
      <g>
       <use style="stroke:#000000;stroke-width:0.8;" x="1011.508637" xlink:href="#m020a1ecbb2" y="882"/>
      </g>
     </g>
     <g id="text_9">
      <!-- 20.0 -->
      <g transform="translate(1000.375825 896.598438)scale(0.1 -0.1)">
       <use xlink:href="#DejaVuSans-50"/>
       <use x="63.623047" xlink:href="#DejaVuSans-48"/>
       <use x="127.246094" xlink:href="#DejaVuSans-46"/>
       <use x="159.033203" xlink:href="#DejaVuSans-48"/>
      </g>
     </g>
    </g>
    <g id="text_10">
     <!-- Average Pairwise Kmer Distribution Hellinger distance -->
     <g transform="translate(455.348437 910.276562)scale(0.1 -0.1)">
      <defs>
       <path d="M 34.1875 63.1875 
L 20.796875 26.90625 
L 47.609375 26.90625 
z
M 28.609375 72.90625 
L 39.796875 72.90625 
L 67.578125 0 
L 57.328125 0 
L 50.6875 18.703125 
L 17.828125 18.703125 
L 11.1875 0 
L 0.78125 0 
z
" id="DejaVuSans-65"/>
       <path d="M 2.984375 54.6875 
L 12.5 54.6875 
L 29.59375 8.796875 
L 46.6875 54.6875 
L 56.203125 54.6875 
L 35.6875 0 
L 23.484375 0 
z
" id="DejaVuSans-118"/>
       <path d="M 56.203125 29.59375 
L 56.203125 25.203125 
L 14.890625 25.203125 
Q 15.484375 15.921875 20.484375 11.0625 
Q 25.484375 6.203125 34.421875 6.203125 
Q 39.59375 6.203125 44.453125 7.46875 
Q 49.3125 8.734375 54.109375 11.28125 
L 54.109375 2.78125 
Q 49.265625 0.734375 44.1875 -0.34375 
Q 39.109375 -1.421875 33.890625 -1.421875 
Q 20.796875 -1.421875 13.15625 6.1875 
Q 5.515625 13.8125 5.515625 26.8125 
Q 5.515625 40.234375 12.765625 48.109375 
Q 20.015625 56 32.328125 56 
Q 43.359375 56 49.78125 48.890625 
Q 56.203125 41.796875 56.203125 29.59375 
z
M 47.21875 32.234375 
Q 47.125 39.59375 43.09375 43.984375 
Q 39.0625 48.390625 32.421875 48.390625 
Q 24.90625 48.390625 20.390625 44.140625 
Q 15.875 39.890625 15.1875 32.171875 
z
" id="DejaVuSans-101"/>
       <path d="M 41.109375 46.296875 
Q 39.59375 47.171875 37.8125 47.578125 
Q 36.03125 48 33.890625 48 
Q 26.265625 48 22.1875 43.046875 
Q 18.109375 38.09375 18.109375 28.8125 
L 18.109375 0 
L 9.078125 0 
L 9.078125 54.6875 
L 18.109375 54.6875 
L 18.109375 46.1875 
Q 20.953125 51.171875 25.484375 53.578125 
Q 30.03125 56 36.53125 56 
Q 37.453125 56 38.578125 55.875 
Q 39.703125 55.765625 41.0625 55.515625 
z
" id="DejaVuSans-114"/>
       <path d="M 34.28125 27.484375 
Q 23.390625 27.484375 19.1875 25 
Q 14.984375 22.515625 14.984375 16.5 
Q 14.984375 11.71875 18.140625 8.90625 
Q 21.296875 6.109375 26.703125 6.109375 
Q 34.1875 6.109375 38.703125 11.40625 
Q 43.21875 16.703125 43.21875 25.484375 
L 43.21875 27.484375 
z
M 52.203125 31.203125 
L 52.203125 0 
L 43.21875 0 
L 43.21875 8.296875 
Q 40.140625 3.328125 35.546875 0.953125 
Q 30.953125 -1.421875 24.3125 -1.421875 
Q 15.921875 -1.421875 10.953125 3.296875 
Q 6 8.015625 6 15.921875 
Q 6 25.140625 12.171875 29.828125 
Q 18.359375 34.515625 30.609375 34.515625 
L 43.21875 34.515625 
L 43.21875 35.40625 
Q 43.21875 41.609375 39.140625 45 
Q 35.0625 48.390625 27.6875 48.390625 
Q 23 48.390625 18.546875 47.265625 
Q 14.109375 46.140625 10.015625 43.890625 
L 10.015625 52.203125 
Q 14.9375 54.109375 19.578125 55.046875 
Q 24.21875 56 28.609375 56 
Q 40.484375 56 46.34375 49.84375 
Q 52.203125 43.703125 52.203125 31.203125 
z
" id="DejaVuSans-97"/>
       <path d="M 45.40625 27.984375 
Q 45.40625 37.75 41.375 43.109375 
Q 37.359375 48.484375 30.078125 48.484375 
Q 22.859375 48.484375 18.828125 43.109375 
Q 14.796875 37.75 14.796875 27.984375 
Q 14.796875 18.265625 18.828125 12.890625 
Q 22.859375 7.515625 30.078125 7.515625 
Q 37.359375 7.515625 41.375 12.890625 
Q 45.40625 18.265625 45.40625 27.984375 
z
M 54.390625 6.78125 
Q 54.390625 -7.171875 48.1875 -13.984375 
Q 42 -20.796875 29.203125 -20.796875 
Q 24.46875 -20.796875 20.265625 -20.09375 
Q 16.0625 -19.390625 12.109375 -17.921875 
L 12.109375 -9.1875 
Q 16.0625 -11.328125 19.921875 -12.34375 
Q 23.78125 -13.375 27.78125 -13.375 
Q 36.625 -13.375 41.015625 -8.765625 
Q 45.40625 -4.15625 45.40625 5.171875 
L 45.40625 9.625 
Q 42.625 4.78125 38.28125 2.390625 
Q 33.9375 0 27.875 0 
Q 17.828125 0 11.671875 7.65625 
Q 5.515625 15.328125 5.515625 27.984375 
Q 5.515625 40.671875 11.671875 48.328125 
Q 17.828125 56 27.875 56 
Q 33.9375 56 38.28125 53.609375 
Q 42.625 51.21875 45.40625 46.390625 
L 45.40625 54.6875 
L 54.390625 54.6875 
z
" id="DejaVuSans-103"/>
       <path id="DejaVuSans-32"/>
       <path d="M 19.671875 64.796875 
L 19.671875 37.40625 
L 32.078125 37.40625 
Q 38.96875 37.40625 42.71875 40.96875 
Q 46.484375 44.53125 46.484375 51.125 
Q 46.484375 57.671875 42.71875 61.234375 
Q 38.96875 64.796875 32.078125 64.796875 
z
M 9.8125 72.90625 
L 32.078125 72.90625 
Q 44.34375 72.90625 50.609375 67.359375 
Q 56.890625 61.8125 56.890625 51.125 
Q 56.890625 40.328125 50.609375 34.8125 
Q 44.34375 29.296875 32.078125 29.296875 
L 19.671875 29.296875 
L 19.671875 0 
L 9.8125 0 
z
" id="DejaVuSans-80"/>
       <path d="M 9.421875 54.6875 
L 18.40625 54.6875 
L 18.40625 0 
L 9.421875 0 
z
M 9.421875 75.984375 
L 18.40625 75.984375 
L 18.40625 64.59375 
L 9.421875 64.59375 
z
" id="DejaVuSans-105"/>
       <path d="M 4.203125 54.6875 
L 13.1875 54.6875 
L 24.421875 12.015625 
L 35.59375 54.6875 
L 46.1875 54.6875 
L 57.421875 12.015625 
L 68.609375 54.6875 
L 77.59375 54.6875 
L 63.28125 0 
L 52.6875 0 
L 40.921875 44.828125 
L 29.109375 0 
L 18.5 0 
z
" id="DejaVuSans-119"/>
       <path d="M 44.28125 53.078125 
L 44.28125 44.578125 
Q 40.484375 46.53125 36.375 47.5 
Q 32.28125 48.484375 27.875 48.484375 
Q 21.1875 48.484375 17.84375 46.4375 
Q 14.5 44.390625 14.5 40.28125 
Q 14.5 37.15625 16.890625 35.375 
Q 19.28125 33.59375 26.515625 31.984375 
L 29.59375 31.296875 
Q 39.15625 29.25 43.1875 25.515625 
Q 47.21875 21.78125 47.21875 15.09375 
Q 47.21875 7.46875 41.1875 3.015625 
Q 35.15625 -1.421875 24.609375 -1.421875 
Q 20.21875 -1.421875 15.453125 -0.5625 
Q 10.6875 0.296875 5.421875 2 
L 5.421875 11.28125 
Q 10.40625 8.6875 15.234375 7.390625 
Q 20.0625 6.109375 24.8125 6.109375 
Q 31.15625 6.109375 34.5625 8.28125 
Q 37.984375 10.453125 37.984375 14.40625 
Q 37.984375 18.0625 35.515625 20.015625 
Q 33.0625 21.96875 24.703125 23.78125 
L 21.578125 24.515625 
Q 13.234375 26.265625 9.515625 29.90625 
Q 5.8125 33.546875 5.8125 39.890625 
Q 5.8125 47.609375 11.28125 51.796875 
Q 16.75 56 26.8125 56 
Q 31.78125 56 36.171875 55.265625 
Q 40.578125 54.546875 44.28125 53.078125 
z
" id="DejaVuSans-115"/>
       <path d="M 9.8125 72.90625 
L 19.671875 72.90625 
L 19.671875 42.09375 
L 52.390625 72.90625 
L 65.09375 72.90625 
L 28.90625 38.921875 
L 67.671875 0 
L 54.6875 0 
L 19.671875 35.109375 
L 19.671875 0 
L 9.8125 0 
z
" id="DejaVuSans-75"/>
       <path d="M 52 44.1875 
Q 55.375 50.25 60.0625 53.125 
Q 64.75 56 71.09375 56 
Q 79.640625 56 84.28125 50.015625 
Q 88.921875 44.046875 88.921875 33.015625 
L 88.921875 0 
L 79.890625 0 
L 79.890625 32.71875 
Q 79.890625 40.578125 77.09375 44.375 
Q 74.3125 48.1875 68.609375 48.1875 
Q 61.625 48.1875 57.5625 43.546875 
Q 53.515625 38.921875 53.515625 30.90625 
L 53.515625 0 
L 44.484375 0 
L 44.484375 32.71875 
Q 44.484375 40.625 41.703125 44.40625 
Q 38.921875 48.1875 33.109375 48.1875 
Q 26.21875 48.1875 22.15625 43.53125 
Q 18.109375 38.875 18.109375 30.90625 
L 18.109375 0 
L 9.078125 0 
L 9.078125 54.6875 
L 18.109375 54.6875 
L 18.109375 46.1875 
Q 21.1875 51.21875 25.484375 53.609375 
Q 29.78125 56 35.6875 56 
Q 41.65625 56 45.828125 52.96875 
Q 50 49.953125 52 44.1875 
z
" id="DejaVuSans-109"/>
       <path d="M 19.671875 64.796875 
L 19.671875 8.109375 
L 31.59375 8.109375 
Q 46.6875 8.109375 53.6875 14.9375 
Q 60.6875 21.78125 60.6875 36.53125 
Q 60.6875 51.171875 53.6875 57.984375 
Q 46.6875 64.796875 31.59375 64.796875 
z
M 9.8125 72.90625 
L 30.078125 72.90625 
Q 51.265625 72.90625 61.171875 64.09375 
Q 71.09375 55.28125 71.09375 36.53125 
Q 71.09375 17.671875 61.125 8.828125 
Q 51.171875 0 30.078125 0 
L 9.8125 0 
z
" id="DejaVuSans-68"/>
       <path d="M 18.3125 70.21875 
L 18.3125 54.6875 
L 36.8125 54.6875 
L 36.8125 47.703125 
L 18.3125 47.703125 
L 18.3125 18.015625 
Q 18.3125 11.328125 20.140625 9.421875 
Q 21.96875 7.515625 27.59375 7.515625 
L 36.8125 7.515625 
L 36.8125 0 
L 27.59375 0 
Q 17.1875 0 13.234375 3.875 
Q 9.28125 7.765625 9.28125 18.015625 
L 9.28125 47.703125 
L 2.6875 47.703125 
L 2.6875 54.6875 
L 9.28125 54.6875 
L 9.28125 70.21875 
z
" id="DejaVuSans-116"/>
       <path d="M 48.6875 27.296875 
Q 48.6875 37.203125 44.609375 42.84375 
Q 40.53125 48.484375 33.40625 48.484375 
Q 26.265625 48.484375 22.1875 42.84375 
Q 18.109375 37.203125 18.109375 27.296875 
Q 18.109375 17.390625 22.1875 11.75 
Q 26.265625 6.109375 33.40625 6.109375 
Q 40.53125 6.109375 44.609375 11.75 
Q 48.6875 17.390625 48.6875 27.296875 
z
M 18.109375 46.390625 
Q 20.953125 51.265625 25.265625 53.625 
Q 29.59375 56 35.59375 56 
Q 45.5625 56 51.78125 48.09375 
Q 58.015625 40.1875 58.015625 27.296875 
Q 58.015625 14.40625 51.78125 6.484375 
Q 45.5625 -1.421875 35.59375 -1.421875 
Q 29.59375 -1.421875 25.265625 0.953125 
Q 20.953125 3.328125 18.109375 8.203125 
L 18.109375 0 
L 9.078125 0 
L 9.078125 75.984375 
L 18.109375 75.984375 
z
" id="DejaVuSans-98"/>
       <path d="M 8.5 21.578125 
L 8.5 54.6875 
L 17.484375 54.6875 
L 17.484375 21.921875 
Q 17.484375 14.15625 20.5 10.265625 
Q 23.53125 6.390625 29.59375 6.390625 
Q 36.859375 6.390625 41.078125 11.03125 
Q 45.3125 15.671875 45.3125 23.6875 
L 45.3125 54.6875 
L 54.296875 54.6875 
L 54.296875 0 
L 45.3125 0 
L 45.3125 8.40625 
Q 42.046875 3.421875 37.71875 1 
Q 33.40625 -1.421875 27.6875 -1.421875 
Q 18.265625 -1.421875 13.375 4.4375 
Q 8.5 10.296875 8.5 21.578125 
z
M 31.109375 56 
z
" id="DejaVuSans-117"/>
       <path d="M 30.609375 48.390625 
Q 23.390625 48.390625 19.1875 42.75 
Q 14.984375 37.109375 14.984375 27.296875 
Q 14.984375 17.484375 19.15625 11.84375 
Q 23.34375 6.203125 30.609375 6.203125 
Q 37.796875 6.203125 41.984375 11.859375 
Q 46.1875 17.53125 46.1875 27.296875 
Q 46.1875 37.015625 41.984375 42.703125 
Q 37.796875 48.390625 30.609375 48.390625 
z
M 30.609375 56 
Q 42.328125 56 49.015625 48.375 
Q 55.71875 40.765625 55.71875 27.296875 
Q 55.71875 13.875 49.015625 6.21875 
Q 42.328125 -1.421875 30.609375 -1.421875 
Q 18.84375 -1.421875 12.171875 6.21875 
Q 5.515625 13.875 5.515625 27.296875 
Q 5.515625 40.765625 12.171875 48.375 
Q 18.84375 56 30.609375 56 
z
" id="DejaVuSans-111"/>
       <path d="M 54.890625 33.015625 
L 54.890625 0 
L 45.90625 0 
L 45.90625 32.71875 
Q 45.90625 40.484375 42.875 44.328125 
Q 39.84375 48.1875 33.796875 48.1875 
Q 26.515625 48.1875 22.3125 43.546875 
Q 18.109375 38.921875 18.109375 30.90625 
L 18.109375 0 
L 9.078125 0 
L 9.078125 54.6875 
L 18.109375 54.6875 
L 18.109375 46.1875 
Q 21.34375 51.125 25.703125 53.5625 
Q 30.078125 56 35.796875 56 
Q 45.21875 56 50.046875 50.171875 
Q 54.890625 44.34375 54.890625 33.015625 
z
" id="DejaVuSans-110"/>
       <path d="M 9.8125 72.90625 
L 19.671875 72.90625 
L 19.671875 43.015625 
L 55.515625 43.015625 
L 55.515625 72.90625 
L 65.375 72.90625 
L 65.375 0 
L 55.515625 0 
L 55.515625 34.71875 
L 19.671875 34.71875 
L 19.671875 0 
L 9.8125 0 
z
" id="DejaVuSans-72"/>
       <path d="M 9.421875 75.984375 
L 18.40625 75.984375 
L 18.40625 0 
L 9.421875 0 
z
" id="DejaVuSans-108"/>
       <path d="M 45.40625 46.390625 
L 45.40625 75.984375 
L 54.390625 75.984375 
L 54.390625 0 
L 45.40625 0 
L 45.40625 8.203125 
Q 42.578125 3.328125 38.25 0.953125 
Q 33.9375 -1.421875 27.875 -1.421875 
Q 17.96875 -1.421875 11.734375 6.484375 
Q 5.515625 14.40625 5.515625 27.296875 
Q 5.515625 40.1875 11.734375 48.09375 
Q 17.96875 56 27.875 56 
Q 33.9375 56 38.25 53.625 
Q 42.578125 51.265625 45.40625 46.390625 
z
M 14.796875 27.296875 
Q 14.796875 17.390625 18.875 11.75 
Q 22.953125 6.109375 30.078125 6.109375 
Q 37.203125 6.109375 41.296875 11.75 
Q 45.40625 17.390625 45.40625 27.296875 
Q 45.40625 37.203125 41.296875 42.84375 
Q 37.203125 48.484375 30.078125 48.484375 
Q 22.953125 48.484375 18.875 42.84375 
Q 14.796875 37.203125 14.796875 27.296875 
z
" id="DejaVuSans-100"/>
       <path d="M 48.78125 52.59375 
L 48.78125 44.1875 
Q 44.96875 46.296875 41.140625 47.34375 
Q 37.3125 48.390625 33.40625 48.390625 
Q 24.65625 48.390625 19.8125 42.84375 
Q 14.984375 37.3125 14.984375 27.296875 
Q 14.984375 17.28125 19.8125 11.734375 
Q 24.65625 6.203125 33.40625 6.203125 
Q 37.3125 6.203125 41.140625 7.25 
Q 44.96875 8.296875 48.78125 10.40625 
L 48.78125 2.09375 
Q 45.015625 0.34375 40.984375 -0.53125 
Q 36.96875 -1.421875 32.421875 -1.421875 
Q 20.0625 -1.421875 12.78125 6.34375 
Q 5.515625 14.109375 5.515625 27.296875 
Q 5.515625 40.671875 12.859375 48.328125 
Q 20.21875 56 33.015625 56 
Q 37.15625 56 41.109375 55.140625 
Q 45.0625 54.296875 48.78125 52.59375 
z
" id="DejaVuSans-99"/>
      </defs>
      <use xlink:href="#DejaVuSans-65"/>
      <use x="62.533203" xlink:href="#DejaVuSans-118"/>
      <use x="121.712891" xlink:href="#DejaVuSans-101"/>
      <use x="183.236328" xlink:href="#DejaVuSans-114"/>
      <use x="224.349609" xlink:href="#DejaVuSans-97"/>
      <use x="285.628906" xlink:href="#DejaVuSans-103"/>
      <use x="349.105469" xlink:href="#DejaVuSans-101"/>
      <use x="410.628906" xlink:href="#DejaVuSans-32"/>
      <use x="442.416016" xlink:href="#DejaVuSans-80"/>
      <use x="498.21875" xlink:href="#DejaVuSans-97"/>
      <use x="559.498047" xlink:href="#DejaVuSans-105"/>
      <use x="587.28125" xlink:href="#DejaVuSans-114"/>
      <use x="628.394531" xlink:href="#DejaVuSans-119"/>
      <use x="710.181641" xlink:href="#DejaVuSans-105"/>
      <use x="737.964844" xlink:href="#DejaVuSans-115"/>
      <use x="790.064453" xlink:href="#DejaVuSans-101"/>
      <use x="851.587891" xlink:href="#DejaVuSans-32"/>
      <use x="883.375" xlink:href="#DejaVuSans-75"/>
      <use x="948.951172" xlink:href="#DejaVuSans-109"/>
      <use x="1046.363281" xlink:href="#DejaVuSans-101"/>
      <use x="1107.886719" xlink:href="#DejaVuSans-114"/>
      <use x="1149" xlink:href="#DejaVuSans-32"/>
      <use x="1180.787109" xlink:href="#DejaVuSans-68"/>
      <use x="1257.789062" xlink:href="#DejaVuSans-105"/>
      <use x="1285.572266" xlink:href="#DejaVuSans-115"/>
      <use x="1337.671875" xlink:href="#DejaVuSans-116"/>
      <use x="1376.880859" xlink:href="#DejaVuSans-114"/>
      <use x="1417.994141" xlink:href="#DejaVuSans-105"/>
      <use x="1445.777344" xlink:href="#DejaVuSans-98"/>
      <use x="1509.253906" xlink:href="#DejaVuSans-117"/>
      <use x="1572.632812" xlink:href="#DejaVuSans-116"/>
      <use x="1611.841797" xlink:href="#DejaVuSans-105"/>
      <use x="1639.625" xlink:href="#DejaVuSans-111"/>
      <use x="1700.806641" xlink:href="#DejaVuSans-110"/>
      <use x="1764.185547" xlink:href="#DejaVuSans-32"/>
      <use x="1795.972656" xlink:href="#DejaVuSans-72"/>
      <use x="1871.167969" xlink:href="#DejaVuSans-101"/>
      <use x="1932.691406" xlink:href="#DejaVuSans-108"/>
      <use x="1960.474609" xlink:href="#DejaVuSans-108"/>
      <use x="1988.257812" xlink:href="#DejaVuSans-105"/>
      <use x="2016.041016" xlink:href="#DejaVuSans-110"/>
      <use x="2079.419922" xlink:href="#DejaVuSans-103"/>
      <use x="2142.896484" xlink:href="#DejaVuSans-101"/>
      <use x="2204.419922" xlink:href="#DejaVuSans-114"/>
      <use x="2245.533203" xlink:href="#DejaVuSans-32"/>
      <use x="2277.320312" xlink:href="#DejaVuSans-100"/>
      <use x="2340.796875" xlink:href="#DejaVuSans-105"/>
      <use x="2368.580078" xlink:href="#DejaVuSans-115"/>
      <use x="2420.679688" xlink:href="#DejaVuSans-116"/>
      <use x="2459.888672" xlink:href="#DejaVuSans-97"/>
      <use x="2521.167969" xlink:href="#DejaVuSans-110"/>
      <use x="2584.546875" xlink:href="#DejaVuSans-99"/>
      <use x="2639.527344" xlink:href="#DejaVuSans-101"/>
     </g>
    </g>
   </g>
   <g id="matplotlib.axis_2">
    <g id="ytick_1">
     <g id="line2d_10">
      <defs>
       <path d="M 0 0 
L -3.5 0 
" id="mffb493afa8" style="stroke:#000000;stroke-width:0.8;"/>
      </defs>
      <g>
       <use style="stroke:#000000;stroke-width:0.8;" x="144" xlink:href="#mffb493afa8" y="835.33278"/>
      </g>
     </g>
     <g id="text_11">
      <!-- 0.5 -->
      <g transform="translate(121.096875 839.131999)scale(0.1 -0.1)">
       <use xlink:href="#DejaVuSans-48"/>
       <use x="63.623047" xlink:href="#DejaVuSans-46"/>
       <use x="95.410156" xlink:href="#DejaVuSans-53"/>
      </g>
     </g>
    </g>
    <g id="ytick_2">
     <g id="line2d_11">
      <g>
       <use style="stroke:#000000;stroke-width:0.8;" x="144" xlink:href="#mffb493afa8" y="696.545509"/>
      </g>
     </g>
     <g id="text_12">
      <!-- 0.6 -->
      <g transform="translate(121.096875 700.344728)scale(0.1 -0.1)">
       <defs>
        <path d="M 33.015625 40.375 
Q 26.375 40.375 22.484375 35.828125 
Q 18.609375 31.296875 18.609375 23.390625 
Q 18.609375 15.53125 22.484375 10.953125 
Q 26.375 6.390625 33.015625 6.390625 
Q 39.65625 6.390625 43.53125 10.953125 
Q 47.40625 15.53125 47.40625 23.390625 
Q 47.40625 31.296875 43.53125 35.828125 
Q 39.65625 40.375 33.015625 40.375 
z
M 52.59375 71.296875 
L 52.59375 62.3125 
Q 48.875 64.0625 45.09375 64.984375 
Q 41.3125 65.921875 37.59375 65.921875 
Q 27.828125 65.921875 22.671875 59.328125 
Q 17.53125 52.734375 16.796875 39.40625 
Q 19.671875 43.65625 24.015625 45.921875 
Q 28.375 48.1875 33.59375 48.1875 
Q 44.578125 48.1875 50.953125 41.515625 
Q 57.328125 34.859375 57.328125 23.390625 
Q 57.328125 12.15625 50.6875 5.359375 
Q 44.046875 -1.421875 33.015625 -1.421875 
Q 20.359375 -1.421875 13.671875 8.265625 
Q 6.984375 17.96875 6.984375 36.375 
Q 6.984375 53.65625 15.1875 63.9375 
Q 23.390625 74.21875 37.203125 74.21875 
Q 40.921875 74.21875 44.703125 73.484375 
Q 48.484375 72.75 52.59375 71.296875 
z
" id="DejaVuSans-54"/>
       </defs>
       <use xlink:href="#DejaVuSans-48"/>
       <use x="63.623047" xlink:href="#DejaVuSans-46"/>
       <use x="95.410156" xlink:href="#DejaVuSans-54"/>
      </g>
     </g>
    </g>
    <g id="ytick_3">
     <g id="line2d_12">
      <g>
       <use style="stroke:#000000;stroke-width:0.8;" x="144" xlink:href="#mffb493afa8" y="557.758238"/>
      </g>
     </g>
     <g id="text_13">
      <!-- 0.7 -->
      <g transform="translate(121.096875 561.557457)scale(0.1 -0.1)">
       <use xlink:href="#DejaVuSans-48"/>
       <use x="63.623047" xlink:href="#DejaVuSans-46"/>
       <use x="95.410156" xlink:href="#DejaVuSans-55"/>
      </g>
     </g>
    </g>
    <g id="ytick_4">
     <g id="line2d_13">
      <g>
       <use style="stroke:#000000;stroke-width:0.8;" x="144" xlink:href="#mffb493afa8" y="418.970967"/>
      </g>
     </g>
     <g id="text_14">
      <!-- 0.8 -->
      <g transform="translate(121.096875 422.770186)scale(0.1 -0.1)">
       <defs>
        <path d="M 31.78125 34.625 
Q 24.75 34.625 20.71875 30.859375 
Q 16.703125 27.09375 16.703125 20.515625 
Q 16.703125 13.921875 20.71875 10.15625 
Q 24.75 6.390625 31.78125 6.390625 
Q 38.8125 6.390625 42.859375 10.171875 
Q 46.921875 13.96875 46.921875 20.515625 
Q 46.921875 27.09375 42.890625 30.859375 
Q 38.875 34.625 31.78125 34.625 
z
M 21.921875 38.8125 
Q 15.578125 40.375 12.03125 44.71875 
Q 8.5 49.078125 8.5 55.328125 
Q 8.5 64.0625 14.71875 69.140625 
Q 20.953125 74.21875 31.78125 74.21875 
Q 42.671875 74.21875 48.875 69.140625 
Q 55.078125 64.0625 55.078125 55.328125 
Q 55.078125 49.078125 51.53125 44.71875 
Q 48 40.375 41.703125 38.8125 
Q 48.828125 37.15625 52.796875 32.3125 
Q 56.78125 27.484375 56.78125 20.515625 
Q 56.78125 9.90625 50.3125 4.234375 
Q 43.84375 -1.421875 31.78125 -1.421875 
Q 19.734375 -1.421875 13.25 4.234375 
Q 6.78125 9.90625 6.78125 20.515625 
Q 6.78125 27.484375 10.78125 32.3125 
Q 14.796875 37.15625 21.921875 38.8125 
z
M 18.3125 54.390625 
Q 18.3125 48.734375 21.84375 45.5625 
Q 25.390625 42.390625 31.78125 42.390625 
Q 38.140625 42.390625 41.71875 45.5625 
Q 45.3125 48.734375 45.3125 54.390625 
Q 45.3125 60.0625 41.71875 63.234375 
Q 38.140625 66.40625 31.78125 66.40625 
Q 25.390625 66.40625 21.84375 63.234375 
Q 18.3125 60.0625 18.3125 54.390625 
z
" id="DejaVuSans-56"/>
       </defs>
       <use xlink:href="#DejaVuSans-48"/>
       <use x="63.623047" xlink:href="#DejaVuSans-46"/>
       <use x="95.410156" xlink:href="#DejaVuSans-56"/>
      </g>
     </g>
    </g>
    <g id="ytick_5">
     <g id="line2d_14">
      <g>
       <use style="stroke:#000000;stroke-width:0.8;" x="144" xlink:href="#mffb493afa8" y="280.183697"/>
      </g>
     </g>
     <g id="text_15">
      <!-- 0.9 -->
      <g transform="translate(121.096875 283.982915)scale(0.1 -0.1)">
       <defs>
        <path d="M 10.984375 1.515625 
L 10.984375 10.5 
Q 14.703125 8.734375 18.5 7.8125 
Q 22.3125 6.890625 25.984375 6.890625 
Q 35.75 6.890625 40.890625 13.453125 
Q 46.046875 20.015625 46.78125 33.40625 
Q 43.953125 29.203125 39.59375 26.953125 
Q 35.25 24.703125 29.984375 24.703125 
Q 19.046875 24.703125 12.671875 31.3125 
Q 6.296875 37.9375 6.296875 49.421875 
Q 6.296875 60.640625 12.9375 67.421875 
Q 19.578125 74.21875 30.609375 74.21875 
Q 43.265625 74.21875 49.921875 64.515625 
Q 56.59375 54.828125 56.59375 36.375 
Q 56.59375 19.140625 48.40625 8.859375 
Q 40.234375 -1.421875 26.421875 -1.421875 
Q 22.703125 -1.421875 18.890625 -0.6875 
Q 15.09375 0.046875 10.984375 1.515625 
z
M 30.609375 32.421875 
Q 37.25 32.421875 41.125 36.953125 
Q 45.015625 41.5 45.015625 49.421875 
Q 45.015625 57.28125 41.125 61.84375 
Q 37.25 66.40625 30.609375 66.40625 
Q 23.96875 66.40625 20.09375 61.84375 
Q 16.21875 57.28125 16.21875 49.421875 
Q 16.21875 41.5 20.09375 36.953125 
Q 23.96875 32.421875 30.609375 32.421875 
z
" id="DejaVuSans-57"/>
       </defs>
       <use xlink:href="#DejaVuSans-48"/>
       <use x="63.623047" xlink:href="#DejaVuSans-46"/>
       <use x="95.410156" xlink:href="#DejaVuSans-57"/>
      </g>
     </g>
    </g>
    <g id="ytick_6">
     <g id="line2d_15">
      <g>
       <use style="stroke:#000000;stroke-width:0.8;" x="144" xlink:href="#mffb493afa8" y="141.396426"/>
      </g>
     </g>
     <g id="text_16">
      <!-- 1.0 -->
      <g transform="translate(121.096875 145.195644)scale(0.1 -0.1)">
       <use xlink:href="#DejaVuSans-49"/>
       <use x="63.623047" xlink:href="#DejaVuSans-46"/>
       <use x="95.410156" xlink:href="#DejaVuSans-48"/>
      </g>
     </g>
    </g>
    <g id="text_17">
     <!-- accuracy -->
     <g transform="translate(115.017187 524.039375)rotate(-90)scale(0.1 -0.1)">
      <defs>
       <path d="M 32.171875 -5.078125 
Q 28.375 -14.84375 24.75 -17.8125 
Q 21.140625 -20.796875 15.09375 -20.796875 
L 7.90625 -20.796875 
L 7.90625 -13.28125 
L 13.1875 -13.28125 
Q 16.890625 -13.28125 18.9375 -11.515625 
Q 21 -9.765625 23.484375 -3.21875 
L 25.09375 0.875 
L 2.984375 54.6875 
L 12.5 54.6875 
L 29.59375 11.921875 
L 46.6875 54.6875 
L 56.203125 54.6875 
z
" id="DejaVuSans-121"/>
      </defs>
      <use xlink:href="#DejaVuSans-97"/>
      <use x="61.279297" xlink:href="#DejaVuSans-99"/>
      <use x="116.259766" xlink:href="#DejaVuSans-99"/>
      <use x="171.240234" xlink:href="#DejaVuSans-117"/>
      <use x="234.619141" xlink:href="#DejaVuSans-114"/>
      <use x="275.732422" xlink:href="#DejaVuSans-97"/>
      <use x="337.011719" xlink:href="#DejaVuSans-99"/>
      <use x="391.992188" xlink:href="#DejaVuSans-121"/>
     </g>
    </g>
   </g>
   <g id="patch_3">
    <path d="M 144 882 
L 144 120.96 
" style="fill:none;stroke:#000000;stroke-linecap:square;stroke-linejoin:miter;stroke-width:0.8;"/>
   </g>
   <g id="patch_4">
    <path d="M 1036.8 882 
L 1036.8 120.96 
" style="fill:none;stroke:#000000;stroke-linecap:square;stroke-linejoin:miter;stroke-width:0.8;"/>
   </g>
   <g id="patch_5">
    <path d="M 144 882 
L 1036.8 882 
" style="fill:none;stroke:#000000;stroke-linecap:square;stroke-linejoin:miter;stroke-width:0.8;"/>
   </g>
   <g id="patch_6">
    <path d="M 144 120.96 
L 1036.8 120.96 
" style="fill:none;stroke:#000000;stroke-linecap:square;stroke-linejoin:miter;stroke-width:0.8;"/>
   </g>
   <g id="text_18">
    <!-- Test Accuracy vs Average Pairwise Kmer Distribution Hellinger distance -->
    <g transform="translate(376.7325 114.96)scale(0.12 -0.12)">
     <defs>
      <path d="M -0.296875 72.90625 
L 61.375 72.90625 
L 61.375 64.59375 
L 35.5 64.59375 
L 35.5 0 
L 25.59375 0 
L 25.59375 64.59375 
L -0.296875 64.59375 
z
" id="DejaVuSans-84"/>
     </defs>
     <use xlink:href="#DejaVuSans-84"/>
     <use x="44.083984" xlink:href="#DejaVuSans-101"/>
     <use x="105.607422" xlink:href="#DejaVuSans-115"/>
     <use x="157.707031" xlink:href="#DejaVuSans-116"/>
     <use x="196.916016" xlink:href="#DejaVuSans-32"/>
     <use x="228.703125" xlink:href="#DejaVuSans-65"/>
     <use x="295.361328" xlink:href="#DejaVuSans-99"/>
     <use x="350.341797" xlink:href="#DejaVuSans-99"/>
     <use x="405.322266" xlink:href="#DejaVuSans-117"/>
     <use x="468.701172" xlink:href="#DejaVuSans-114"/>
     <use x="509.814453" xlink:href="#DejaVuSans-97"/>
     <use x="571.09375" xlink:href="#DejaVuSans-99"/>
     <use x="626.074219" xlink:href="#DejaVuSans-121"/>
     <use x="685.253906" xlink:href="#DejaVuSans-32"/>
     <use x="717.041016" xlink:href="#DejaVuSans-118"/>
     <use x="776.220703" xlink:href="#DejaVuSans-115"/>
     <use x="828.320312" xlink:href="#DejaVuSans-32"/>
     <use x="860.107422" xlink:href="#DejaVuSans-65"/>
     <use x="922.640625" xlink:href="#DejaVuSans-118"/>
     <use x="981.820312" xlink:href="#DejaVuSans-101"/>
     <use x="1043.34375" xlink:href="#DejaVuSans-114"/>
     <use x="1084.457031" xlink:href="#DejaVuSans-97"/>
     <use x="1145.736328" xlink:href="#DejaVuSans-103"/>
     <use x="1209.212891" xlink:href="#DejaVuSans-101"/>
     <use x="1270.736328" xlink:href="#DejaVuSans-32"/>
     <use x="1302.523438" xlink:href="#DejaVuSans-80"/>
     <use x="1358.326172" xlink:href="#DejaVuSans-97"/>
     <use x="1419.605469" xlink:href="#DejaVuSans-105"/>
     <use x="1447.388672" xlink:href="#DejaVuSans-114"/>
     <use x="1488.501953" xlink:href="#DejaVuSans-119"/>
     <use x="1570.289062" xlink:href="#DejaVuSans-105"/>
     <use x="1598.072266" xlink:href="#DejaVuSans-115"/>
     <use x="1650.171875" xlink:href="#DejaVuSans-101"/>
     <use x="1711.695312" xlink:href="#DejaVuSans-32"/>
     <use x="1743.482422" xlink:href="#DejaVuSans-75"/>
     <use x="1809.058594" xlink:href="#DejaVuSans-109"/>
     <use x="1906.470703" xlink:href="#DejaVuSans-101"/>
     <use x="1967.994141" xlink:href="#DejaVuSans-114"/>
     <use x="2009.107422" xlink:href="#DejaVuSans-32"/>
     <use x="2040.894531" xlink:href="#DejaVuSans-68"/>
     <use x="2117.896484" xlink:href="#DejaVuSans-105"/>
     <use x="2145.679688" xlink:href="#DejaVuSans-115"/>
     <use x="2197.779297" xlink:href="#DejaVuSans-116"/>
     <use x="2236.988281" xlink:href="#DejaVuSans-114"/>
     <use x="2278.101562" xlink:href="#DejaVuSans-105"/>
     <use x="2305.884766" xlink:href="#DejaVuSans-98"/>
     <use x="2369.361328" xlink:href="#DejaVuSans-117"/>
     <use x="2432.740234" xlink:href="#DejaVuSans-116"/>
     <use x="2471.949219" xlink:href="#DejaVuSans-105"/>
     <use x="2499.732422" xlink:href="#DejaVuSans-111"/>
     <use x="2560.914062" xlink:href="#DejaVuSans-110"/>
     <use x="2624.292969" xlink:href="#DejaVuSans-32"/>
     <use x="2656.080078" xlink:href="#DejaVuSans-72"/>
     <use x="2731.275391" xlink:href="#DejaVuSans-101"/>
     <use x="2792.798828" xlink:href="#DejaVuSans-108"/>
     <use x="2820.582031" xlink:href="#DejaVuSans-108"/>
     <use x="2848.365234" xlink:href="#DejaVuSans-105"/>
     <use x="2876.148438" xlink:href="#DejaVuSans-110"/>
     <use x="2939.527344" xlink:href="#DejaVuSans-103"/>
     <use x="3003.003906" xlink:href="#DejaVuSans-101"/>
     <use x="3064.527344" xlink:href="#DejaVuSans-114"/>
     <use x="3105.640625" xlink:href="#DejaVuSans-32"/>
     <use x="3137.427734" xlink:href="#DejaVuSans-100"/>
     <use x="3200.904297" xlink:href="#DejaVuSans-105"/>
     <use x="3228.6875" xlink:href="#DejaVuSans-115"/>
     <use x="3280.787109" xlink:href="#DejaVuSans-116"/>
     <use x="3319.996094" xlink:href="#DejaVuSans-97"/>
     <use x="3381.275391" xlink:href="#DejaVuSans-110"/>
     <use x="3444.654297" xlink:href="#DejaVuSans-99"/>
     <use x="3499.634766" xlink:href="#DejaVuSans-101"/>
    </g>
   </g>
   <g id="legend_1">
    <g id="patch_7">
     <path d="M 151 158.31625 
L 328.271875 158.31625 
Q 330.271875 158.31625 330.271875 156.31625 
L 330.271875 127.96 
Q 330.271875 125.96 328.271875 125.96 
L 151 125.96 
Q 149 125.96 149 127.96 
L 149 156.31625 
Q 149 158.31625 151 158.31625 
z
" style="fill:#ffffff;opacity:0.8;stroke:#cccccc;stroke-linejoin:miter;"/>
    </g>
    <g id="PathCollection_3">
     <g>
      <use style="fill:#1f77b4;stroke:#1f77b4;" x="163" xlink:href="#m1f78c9186d" y="134.933438"/>
     </g>
    </g>
    <g id="text_19">
     <!-- Control Positions -->
     <g transform="translate(181 137.558438)scale(0.1 -0.1)">
      <defs>
       <path d="M 64.40625 67.28125 
L 64.40625 56.890625 
Q 59.421875 61.53125 53.78125 63.8125 
Q 48.140625 66.109375 41.796875 66.109375 
Q 29.296875 66.109375 22.65625 58.46875 
Q 16.015625 50.828125 16.015625 36.375 
Q 16.015625 21.96875 22.65625 14.328125 
Q 29.296875 6.6875 41.796875 6.6875 
Q 48.140625 6.6875 53.78125 8.984375 
Q 59.421875 11.28125 64.40625 15.921875 
L 64.40625 5.609375 
Q 59.234375 2.09375 53.4375 0.328125 
Q 47.65625 -1.421875 41.21875 -1.421875 
Q 24.65625 -1.421875 15.125 8.703125 
Q 5.609375 18.84375 5.609375 36.375 
Q 5.609375 53.953125 15.125 64.078125 
Q 24.65625 74.21875 41.21875 74.21875 
Q 47.75 74.21875 53.53125 72.484375 
Q 59.328125 70.75 64.40625 67.28125 
z
" id="DejaVuSans-67"/>
      </defs>
      <use xlink:href="#DejaVuSans-67"/>
      <use x="69.824219" xlink:href="#DejaVuSans-111"/>
      <use x="131.005859" xlink:href="#DejaVuSans-110"/>
      <use x="194.384766" xlink:href="#DejaVuSans-116"/>
      <use x="233.59375" xlink:href="#DejaVuSans-114"/>
      <use x="272.457031" xlink:href="#DejaVuSans-111"/>
      <use x="333.638672" xlink:href="#DejaVuSans-108"/>
      <use x="361.421875" xlink:href="#DejaVuSans-32"/>
      <use x="393.208984" xlink:href="#DejaVuSans-80"/>
      <use x="449.886719" xlink:href="#DejaVuSans-111"/>
      <use x="511.068359" xlink:href="#DejaVuSans-115"/>
      <use x="563.167969" xlink:href="#DejaVuSans-105"/>
      <use x="590.951172" xlink:href="#DejaVuSans-116"/>
      <use x="630.160156" xlink:href="#DejaVuSans-105"/>
      <use x="657.943359" xlink:href="#DejaVuSans-111"/>
      <use x="719.125" xlink:href="#DejaVuSans-110"/>
      <use x="782.503906" xlink:href="#DejaVuSans-115"/>
     </g>
    </g>
    <g id="PathCollection_4">
     <g>
      <use style="fill:#ff7f0e;stroke:#ff7f0e;" x="163" xlink:href="#mec7a39464b" y="149.611563"/>
     </g>
    </g>
    <g id="text_20">
     <!-- Annotated Modified Positions -->
     <g transform="translate(181 152.236563)scale(0.1 -0.1)">
      <defs>
       <path d="M 9.8125 72.90625 
L 24.515625 72.90625 
L 43.109375 23.296875 
L 61.8125 72.90625 
L 76.515625 72.90625 
L 76.515625 0 
L 66.890625 0 
L 66.890625 64.015625 
L 48.09375 14.015625 
L 38.1875 14.015625 
L 19.390625 64.015625 
L 19.390625 0 
L 9.8125 0 
z
" id="DejaVuSans-77"/>
       <path d="M 37.109375 75.984375 
L 37.109375 68.5 
L 28.515625 68.5 
Q 23.6875 68.5 21.796875 66.546875 
Q 19.921875 64.59375 19.921875 59.515625 
L 19.921875 54.6875 
L 34.71875 54.6875 
L 34.71875 47.703125 
L 19.921875 47.703125 
L 19.921875 0 
L 10.890625 0 
L 10.890625 47.703125 
L 2.296875 47.703125 
L 2.296875 54.6875 
L 10.890625 54.6875 
L 10.890625 58.5 
Q 10.890625 67.625 15.140625 71.796875 
Q 19.390625 75.984375 28.609375 75.984375 
z
" id="DejaVuSans-102"/>
      </defs>
      <use xlink:href="#DejaVuSans-65"/>
      <use x="68.408203" xlink:href="#DejaVuSans-110"/>
      <use x="131.787109" xlink:href="#DejaVuSans-110"/>
      <use x="195.166016" xlink:href="#DejaVuSans-111"/>
      <use x="256.347656" xlink:href="#DejaVuSans-116"/>
      <use x="295.556641" xlink:href="#DejaVuSans-97"/>
      <use x="356.835938" xlink:href="#DejaVuSans-116"/>
      <use x="396.044922" xlink:href="#DejaVuSans-101"/>
      <use x="457.568359" xlink:href="#DejaVuSans-100"/>
      <use x="521.044922" xlink:href="#DejaVuSans-32"/>
      <use x="552.832031" xlink:href="#DejaVuSans-77"/>
      <use x="639.111328" xlink:href="#DejaVuSans-111"/>
      <use x="700.292969" xlink:href="#DejaVuSans-100"/>
      <use x="763.769531" xlink:href="#DejaVuSans-105"/>
      <use x="791.552734" xlink:href="#DejaVuSans-102"/>
      <use x="826.757812" xlink:href="#DejaVuSans-105"/>
      <use x="854.541016" xlink:href="#DejaVuSans-101"/>
      <use x="916.064453" xlink:href="#DejaVuSans-100"/>
      <use x="979.541016" xlink:href="#DejaVuSans-32"/>
      <use x="1011.328125" xlink:href="#DejaVuSans-80"/>
      <use x="1068.005859" xlink:href="#DejaVuSans-111"/>
      <use x="1129.1875" xlink:href="#DejaVuSans-115"/>
      <use x="1181.287109" xlink:href="#DejaVuSans-105"/>
      <use x="1209.070312" xlink:href="#DejaVuSans-116"/>
      <use x="1248.279297" xlink:href="#DejaVuSans-105"/>
      <use x="1276.0625" xlink:href="#DejaVuSans-111"/>
      <use x="1337.244141" xlink:href="#DejaVuSans-110"/>
      <use x="1400.623047" xlink:href="#DejaVuSans-115"/>
     </g>
    </g>
   </g>
  </g>
 </g>
 <defs>
  <clipPath id="pebe017ada0">
   <rect height="761.04" width="892.8" x="144" y="120.96"/>
  </clipPath>
 </defs>
</svg>
